<svg width="35" height="35" viewBox="0 0 35 35" fill="none" xmlns="http://www.w3.org/2000/svg">
<g clip-path="url(#clip0)">
<rect width="35" height="35" fill="white"/>
<path d="M17.4798 5.09536e-10C16.8524 5.09536e-10 16.2255 0.0337264 15.6017 0.10096C15.0299 0.159361 14.4652 0.255138 13.9081 0.371355C13.8002 0.393912 13.6923 0.41771 13.5845 0.442604C10.3019 1.18999 7.30448 2.86835 4.95174 5.27642C4.73296 5.50068 4.51877 5.73158 4.30933 5.96905C-2.04611 13.2653 -1.2834 24.3323 6.01295 30.6877C12.9983 36.7722 23.5129 36.3674 30.0097 29.7638C30.2289 29.5395 30.443 29.3086 30.6521 29.0712C33.4569 25.8771 35.0025 21.7709 35 17.5201C35 7.84393 27.1559 -7.30003e-05 17.4798 5.09536e-10ZM5.73022 6.15243C5.82249 6.05665 5.91827 5.96497 6.0123 5.87211C6.12092 5.76523 6.22896 5.65778 6.33992 5.55441C6.43745 5.4633 6.5379 5.3757 6.63777 5.28693C6.75048 5.18707 6.86261 5.0872 6.97824 4.99084C7.07986 4.90499 7.1844 4.82265 7.28835 4.73972C7.40515 4.64628 7.52195 4.55284 7.64226 4.4629C7.74855 4.38289 7.85659 4.30522 7.96521 4.2293C8.0861 4.14287 8.20758 4.0541 8.3308 3.9735C8.44118 3.89875 8.55272 3.82634 8.66485 3.7545C8.78983 3.67449 8.91539 3.59565 9.04212 3.5209C9.15622 3.45279 9.27105 3.38578 9.38668 3.32C9.51597 3.24642 9.64576 3.17458 9.77622 3.1045C9.89302 3.04223 10.0098 2.98128 10.1266 2.92171C10.2598 2.85455 10.3941 2.78972 10.529 2.72607C10.6458 2.67059 10.7673 2.61511 10.8876 2.56255C11.0248 2.50415 11.1638 2.44574 11.3028 2.38734C11.4237 2.3377 11.544 2.28923 11.6661 2.24251C11.8074 2.18878 11.9505 2.13856 12.0936 2.08833C12.2156 2.0457 12.3377 2.00307 12.4615 1.96277C12.6069 1.91605 12.7535 1.87283 12.9006 1.8302C13.0239 1.79458 13.1459 1.75779 13.2697 1.7245C13.317 1.71223 13.3644 1.7023 13.4117 1.69004C11.683 3.36855 10.4002 5.4517 9.67927 7.75086C8.29313 7.38527 6.95123 6.86886 5.67766 6.21083C5.69693 6.19039 5.71329 6.16995 5.73022 6.15243ZM4.89042 7.09268C6.29328 7.85277 7.78089 8.4448 9.32244 8.85638C8.56674 11.4841 8.17005 14.202 8.14334 16.9361H1.1411C1.26834 13.3307 2.58681 9.86912 4.89042 7.09268ZM4.89042 27.9475C2.58695 25.171 1.26849 21.7095 1.1411 18.1041H8.14334C8.17005 20.8382 8.56667 23.5561 9.32244 26.1838C7.78096 26.5956 6.29335 27.1875 4.89042 27.9475ZM13.2662 33.3181C13.1483 33.2883 13.0262 33.2497 12.9047 33.2141C12.757 33.1709 12.6086 33.1277 12.4626 33.0804C12.3394 33.0407 12.2179 32.998 12.0965 32.9554C11.9528 32.9058 11.8091 32.8549 11.6672 32.8006C11.5458 32.7545 11.426 32.706 11.3057 32.657C11.1662 32.5986 11.0266 32.5402 10.8882 32.4818C10.769 32.4292 10.6505 32.3751 10.5325 32.3194C10.3964 32.2552 10.2609 32.1898 10.1237 32.122C10.0069 32.0636 9.8901 32.0052 9.7733 31.9416C9.64131 31.8709 9.51049 31.7985 9.37968 31.7237C9.26287 31.6589 9.15191 31.5923 9.0392 31.5246C8.91072 31.4475 8.78457 31.3681 8.65843 31.2869C8.54747 31.2162 8.43651 31.1444 8.3273 31.0708C8.2029 30.9867 8.07968 30.8991 7.95762 30.8115C7.85075 30.735 7.74387 30.6585 7.63875 30.5779C7.51786 30.4868 7.39931 30.3928 7.28134 30.2982C7.17797 30.2158 7.07519 30.1341 6.97415 30.0494C6.85735 29.9524 6.74464 29.8514 6.63134 29.751C6.53206 29.6628 6.4322 29.5758 6.33525 29.4858C6.22371 29.3819 6.11567 29.2738 6.00704 29.1669C5.91302 29.0741 5.81724 28.9824 5.72497 28.8872C5.70803 28.8691 5.69168 28.8504 5.67474 28.8329C6.94824 28.1746 8.29014 27.6579 9.67635 27.2923C10.3974 29.5914 11.6801 31.6744 13.4087 33.3531C13.3614 33.3408 13.3135 33.3309 13.2662 33.3181ZM16.8958 33.8261C14.3969 33.4711 12.2063 30.8629 10.828 27.0114C12.8206 26.5652 14.8541 26.3258 16.8958 26.2971V33.8261ZM16.8958 25.1291C14.7299 25.1576 12.5731 25.4149 10.4613 25.8965C9.72796 23.3629 9.34113 20.7416 9.31135 18.1041H16.8958V25.1291ZM16.8958 16.9361H9.31135C9.34106 14.2987 9.72789 11.6773 10.4613 9.14371C12.5731 9.6253 14.73 9.88255 16.8958 9.91109V16.9361ZM16.8958 8.74308C14.854 8.71461 12.8206 8.47524 10.828 8.02884C12.2063 4.17732 14.3969 1.56915 16.8958 1.21408V8.74308ZM30.0693 7.09268C32.3727 9.86919 33.6912 13.3307 33.8186 16.9361H26.8163C26.7896 14.202 26.393 11.4841 25.6372 8.85638C27.1787 8.44458 28.6663 7.85262 30.0693 7.09268ZM21.6888 1.72158C21.8114 1.75195 21.9335 1.79049 22.0549 1.82611C22.2027 1.86933 22.351 1.91255 22.497 1.95985C22.6203 1.99956 22.7417 2.0422 22.8632 2.08483C23.0069 2.13447 23.1505 2.18528 23.2925 2.23959C23.4139 2.28573 23.5337 2.3342 23.654 2.38326C23.7935 2.44166 23.9331 2.50006 24.0715 2.55846C24.1907 2.61102 24.3092 2.66511 24.4272 2.72081C24.5633 2.78505 24.6987 2.85046 24.836 2.91821C24.9528 2.97661 25.0696 3.03501 25.1864 3.09866C25.3184 3.16933 25.4492 3.24174 25.58 3.3165C25.6968 3.38132 25.8078 3.4479 25.9205 3.51564C26.049 3.59273 26.1751 3.67216 26.3013 3.75333C26.4122 3.824 26.5232 3.89583 26.6324 3.96942C26.7568 4.05351 26.8794 4.14053 27.0015 4.22813C27.1089 4.30464 27.2158 4.38172 27.3215 4.46173C27.4418 4.55225 27.5598 4.64628 27.6783 4.74089C27.7811 4.82265 27.8845 4.90441 27.9855 4.98968C28.1023 5.08662 28.215 5.18765 28.3283 5.2881C28.4276 5.37629 28.5275 5.4633 28.6244 5.55324C28.736 5.65719 28.844 5.76523 28.9526 5.87211C29.0467 5.96497 29.1424 6.05665 29.2347 6.15185C29.2517 6.16995 29.268 6.18864 29.2849 6.20616C28.0114 6.86448 26.6695 7.38111 25.2833 7.74677C24.5609 5.44739 23.2765 3.36446 21.5463 1.68654C21.5936 1.6988 21.6415 1.70873 21.6888 1.72158ZM18.0638 1.21408C20.5628 1.56915 22.7534 4.17732 24.1317 8.02884C22.139 8.47502 20.1056 8.71439 18.0638 8.74308V1.21408ZM18.0638 9.91109C20.2298 9.88262 22.3866 9.62537 24.4984 9.14371C25.2317 11.6773 25.6186 14.2987 25.6483 16.9361H18.0638V9.91109ZM18.0638 18.1041H25.6483C25.6186 20.7416 25.2318 23.3629 24.4984 25.8965C22.3866 25.4149 20.2298 25.1577 18.0638 25.1291V18.1041ZM18.0638 33.8261V26.2971C20.1057 26.3256 22.139 26.565 24.1317 27.0114C22.7534 30.8629 20.5628 33.4711 18.0638 33.8261ZM29.2295 28.8878C29.1372 28.983 29.042 29.0747 28.948 29.1675C28.8393 29.2744 28.7307 29.3824 28.6192 29.4864C28.5222 29.5769 28.4224 29.6616 28.3231 29.7521C28.2098 29.8526 28.0971 29.953 27.9814 30.05C27.8792 30.1352 27.7753 30.2176 27.6713 30.3005C27.5545 30.3939 27.4377 30.4874 27.3174 30.5773C27.2111 30.6573 27.1031 30.735 26.9945 30.8109C26.8736 30.8974 26.7521 30.9861 26.6289 31.0667C26.5185 31.1415 26.407 31.2139 26.2948 31.2851C26.1699 31.3657 26.0439 31.4436 25.917 31.5187C25.8002 31.5871 25.6886 31.6536 25.5736 31.7196C25.4443 31.7932 25.3143 31.8651 25.1835 31.9351C25.0667 31.9974 24.9499 32.0584 24.8331 32.1179C24.6999 32.1851 24.5656 32.2499 24.4307 32.3136C24.3139 32.3691 24.1924 32.4245 24.0721 32.4771C23.9349 32.5355 23.7959 32.5939 23.6569 32.6523C23.536 32.7014 23.4157 32.7504 23.2942 32.7965C23.1517 32.8509 23.0086 32.9017 22.865 32.9513C22.7435 32.9939 22.622 33.0366 22.4988 33.0763C22.3528 33.1236 22.2068 33.1668 22.0579 33.2094C21.9358 33.2456 21.8132 33.2819 21.6899 33.3151C21.6426 33.3274 21.5953 33.3373 21.548 33.3496C23.2767 31.6711 24.5595 29.5879 25.2804 27.2888C26.6666 27.6544 28.0085 28.1708 29.282 28.8288C29.2628 28.8498 29.2464 28.8703 29.2295 28.8878ZM30.0693 27.9475C28.6664 27.1875 27.1788 26.5954 25.6372 26.1838C26.3929 23.5561 26.7896 20.8382 26.8163 18.1041H33.8186C33.6914 21.7095 32.3729 25.1711 30.0693 27.9475Z" fill="black"/>
</g>
<defs>
<clipPath id="clip0">
<rect width="35" height="35" fill="white"/>
</clipPath>
</defs>
</svg>
